# xmcd
# Track frame offsets:
# 150
# 13522
# 30345
# 44056
# 57859
# 71037
# 84215
# 99687
# 113821
# 125724
# 141830
# 159218
# 172893
# 186691
# 203030
# 219441
# 232678
# 250425
# 260856
#
# Disc length: 3728 seconds
# Revision: 0
# Processed by: cddbd v1.5.2PL0 Copyright (c) Steve Scherf et al.
# Submitted via: VisiTrax 2.11.2.271 - For more info visit www.synapsa.com
#
DISCID=0d0e8e13
DTITLE=Promo Only Country - June 2012
DYEAR=2012
DGENRE=Country
TTITLE0=Neal McCoy - Shotgun Rider
TTITLE1=Kellie Pickler - 100 Proof
TTITLE2=LoCash Cowboys - C.O.U.N.T.R.Y.
TTITLE3=Daniel Warren - Sweet Little Lullaby
TTITLE4=Montgomery Gentry - So Called Life (Kicks My Ass Version)
TTITLE5=Montgomery Gentry - So Called Life (Breaks My Back Version)
TTITLE6=Jake Owen - Alone With You
TTITLE7=Due West - Things You Can't Do In A Car
TTITLE8=Bill Gentry - That Kind Of Life
TTITLE9=Kelly Clarkson - Mr Know It All (Country Mix)
TTITLE10=George Strait - Drinkin' Man
TTITLE11=Randy Houser - How Country Feels
TTITLE12=Bradley Gaskin - Diamonds Make Babies
TTITLE13=Lewis Copeland - She's Got It Going On
TTITLE14=John Colbert - On The Inside
TTITLE15=The Doc Marshalls - Why I'm Leaving
TTITLE16=Willie Nelson - Just Breathe
TTITLE17=Nanci Griffith - Hell No (I'm Not Alright)
TTITLE18=Etta Britt f. Delbert McClinton - Leap Of Faith
EXTD=
EXTT0=
EXTT1=
EXTT2=
EXTT3=
EXTT4=
EXTT5=
EXTT6=
EXTT7=
EXTT8=
EXTT9=
EXTT10=
EXTT11=
EXTT12=
EXTT13=
EXTT14=
EXTT15=
EXTT16=
EXTT17=
EXTT18=
PLAYORDER=
